<svg xmlns="http://www.w3.org/2000/svg" width="200" height="200" viewBox="0 0 200 200"><path d="M194.22 115.72c-1.7-28.35 2.93-56.32-.88-84.68-.14-1.04-.75-1.88-1.9-1.9-13.32-.2-26.64-1.16-39.95-.94.5-.1.9-.4 1.1-1 2.2-9.32-8.1-14.87-15.7-16.1-9.3-1.5-21.3 1.76-26.8 9.88-1.5 2.17-2.4 4.72-2.8 7.47-4.3-2.8-11.9-1.58-16.4-1.28-4.6.3-9.1.86-13.6 1.4 1-7.25-4.7-12.77-11.9-13.8-9.6-1.35-20.1 3.47-26.1 10.77-2.1 2.45-3.1 5.16-3.6 7.95-3.7-1.3-9.2-.7-12.7-.8-6.3-.4-12.6-.6-18.7.9-.5-.3-1.1-.1-1.4.4-.7.5-.8 1.4-.3 2-1.9 50.1 7 99.7.7 149.9-.2 1 .9 1.8 1.9 1.9 32.8 1 65.5-1.4 98.3-3.6 29-2 58.3 1.8 87.3 2.1-.2 2.2 3.2 3 3.6.7 5-23.8.9-47.5-.5-71.5zm-10.43-82.9c5.1.18 7.4 6.72 8.2 15.2-5.8-4.3-10.5-9.66-15.8-14.54-.5-.5-1.3.25-.8.78 3 3.36 6.1 6.7 9.1 10.08 2 2.26 4.6 5.9 7.7 6.88.4 7.62 0 16.26-.5 23.12-1.8-1.33-4.2-1.9-6.7-2.12-2.7-7.2-10.1-14.22-14.9-19.8-5.6-6.48-11.2-13.26-18.2-18.27-.5-.33-1.1.42-.6.77 12.3 10.03 20.1 25.13 30.2 37.16-2.2 0-4.4.15-6.2.2.5-.22.9-.85.5-1.44-4.6-7.2-11.4-13.7-16.7-20.48-4.7-5.94-10.1-14.46-17.3-17.64-.5-.22-1.1.36-.6.8 6.2 6.4 11.8 12.84 17.2 20.06 4.5 6 9.3 14.8 15.8 18.68 0 .04.1 0 .2.03h-6c.1-.2.2-.3.3-.4.2-.6.1-.9-.2-1.5s-.9-.8-1.37-.6c0-.1-.2-.3-.83-1-.85-1-1.7-2-2.5-3-2-2.5-4-4.9-6.05-7.3-6.96-8.2-13.5-16.7-21.16-24.3.5-.9 1.03-1.7 1.6-2.6 15.03 0 30.03.6 45.1 1.1zM160.4 70.5c-4.6-4.43-9.16-8.6-13.3-13.5-3.87-4.6-7.54-9.42-11.66-13.8 0-2.16.13-4.3.54-6.43.07-.28.17-.52.25-.78 7.73 8.7 14.3 18.3 22.1 27 1.8 2 4.64 7.7 7.8 9.3h-6c.6-.4.92-1.2.26-1.8zm-46.3-48.45c4.86-5.95 13.47-7.7 20.73-7.37 8.52.4 12.74 4.8 14.8 12.52.15.6.64.9 1.16 1-4.3.1-8.5.32-12.7.72-.2-.05-.3-.13-.5-.12-5.1.33-5.7 8.58-5.9 12.33-.2 3.83-.8 11.1 2.4 13.88 0 .1.1.1.2.2-16.7 7.6-30.5-20.6-20.4-33.1zm-7.3 9.82c.1.02.17-.03.25-.03-.2 16.52 14.76 36.9 30.14 24.9 1.2-.95-.3-2.73-1.6-2.1 0-.08.1-.15.1-.25.3-2.6 0-5.2-.1-7.8 3.2 4 6.4 8.1 9.7 12.2 3.8 4.8 8 10.4 13.5 13.4H149c.5-.6.6-1.6-.2-2.1-4.73-3.6-8.1-7.9-12.18-12.1-.55-.6-1.56.1-1.1.8 3.36 4.7 7.1 9.8 11.84 13.3h-7.6c-.07-.1-.05-.2-.15-.3.7.6 0-.1-.1-.4-.4-.6-.8-1.1-1.3-1.7-1.4-1.5-2.8-2.8-4.2-4.2l-4.3-4.2c-.3-.4-.9-1-1.4-1.1-.1-.1-.2-.1-.4-.1-.1-.1-.3-.27-.4-.27-.1 0-.2.07-.2.16-.1.4.1 1.35.4 1.8 1.1 1.6 2.5 3 3.8 4.4 1.5 1.6 3 3.25 4.57 4.8l.94.97c-2.6 0-5.23.1-7.84.07.1 0 .3 0 .4-.02.93-.2 1.1-1.6.26-2.04-7.42-3.6-12.7-13.4-17.42-19.8-4.77-6.4-9.37-14.1-15.3-19.7 3.26.1 6.53.3 9.8 1zm-22.73-.2c7.46 7 13.32 15.25 19.22 23.55 3.9 5.5 8.1 12.86 14 16.38.9.53 2.1-.58 1.5-1.5-5.1-6.85-11-13.18-16.2-20.06-5-6.62-10.1-13.2-16.4-18.6 2.8-.28 5.5-.45 8.3-.5 7.3 8.34 12.9 18.28 19.4 27.18 2.6 3.6 8.3 13.62 13.9 14.33-3.4-.03-6.8-.05-10.2-.15-2.5-.08-5-.06-7.4-.1.4-.5.5-1.24-.1-1.85-6.3-6.65-12.5-13.38-18.6-20.25-4.7-5.26-9.8-13.5-15.9-17.47 2.7-.3 5.4-.65 8.2-.95zm4.07 18.66c6.4 7.5 12.94 14.96 20 21.84-3.1-.03-6.22-.1-9.32-.1.18-.34.3-.77.35-1.4.08-1.34-1.82-1.45-2.22-.3.9-2.58-11.77-16.32-13.4-18.46C78.43 45.2 73 38.7 66.3 33.4c2.66-.1 5.32-.34 7.97-.62 2.46 6.45 9.5 12.38 13.88 17.55zM57.27 57.7c2.3 3.38 4.9 6.55 7.5 9.7.83 1 2.25 3.14 3.84 4.82l-4.9.06c-.3-1.05-1.1-1.8-1.9-2.63l-4.3-4.88c-2.1-2.35-4.2-4.56-6.5-6.6 2.1.24 4.2-.2 6-1.4.2.08.3.5.4.2-.1.22-.1.52 0 .74zm9.32 7.87c-2.7-2.94-5.2-6.2-8.2-8.75-.2-.16-.5-.3-.7-.2l-.4-.23c1-.9 1.9-2 2.6-3.4.7-.4 1.1-1.2.5-2.1-1-1.6-1.4-3.2-1.4-4.8 3.6 5.1 7.6 9.9 11.3 14.9 2.2 2.9 4.3 5.8 6.5 8.7.6.8 1.2 1.7 2 2.4h-6c-.5-.7-1.2-1.2-1.8-1.7-1.6-1.6-3.1-3.3-4.6-5zm-7.1-21.95c.2-.96.5-1.92.8-2.9.2-.7.6-1.33.9-1.92 3.8 5.88 8.3 11.46 12.4 17.07 4 5.5 8.2 11.84 13.6 16.2-1.8 0-3.6 0-5.3.02 0-.3-.1-.6-.3-.8-7.7-9-14.7-18.7-22.3-27.7zM75.8 54.3c-4.28-5.48-8.34-12.1-13.6-16.8.83-1.1 1.78-2.05 2.78-3.03 9.93 9.15 17.58 20.6 25.45 31.48.53.73 3.46 4.55 5.8 6.1-1.8 0-3.6-.02-5.4 0 0-.33-.1-.65-.35-.92C85.46 65.6 80.44 60.2 75.8 54.3zM44.9 25.2c4.63-4.37 11.37-6.6 17.63-6.82 7.78-.27 10.5 4 11.1 10.6-3.57.42-7.14.8-10.74.98-1.3-.26-2.2 1.32-1.9 2.46-1.8 1.96-3.2 4.72-3.9 6.43-1.7 4.08-2.9 9.9.4 13.45-6.2 4.5-11.7.92-15.6-5.7-4.5-7.47-3.3-15.5 2.9-21.4zM23.1 36.46c3.44.17 8.75 1.55 12.46.62.14 5.5 2.52 11.07 6 15.53 2.13 2.8 5 4.6 7.9 5.3 0 .1.02.3.12.4 2.1 2.6 4 5.6 6.07 8.3 1.23 1.6 2.46 3.2 3.73 4.7l.93 1.2-4.8.1c-4.5.1-9-.1-13.5-.2.5-.3.7-.9.2-1.4-5.2-6-10.1-11.6-14.5-18.2C23.8 46.8 20 41 15 36.3c2.7 0 5.4.1 8.1.2zm-17.88.23c2.96-.4 5.94-.5 8.92-.5-.26.2-.37.6-.08.9 5.36 6.2 9.4 13.1 13.75 20 3.4 5.3 7.3 11.9 13 14.9-2.9-.1-5.8-.2-8.7-.2.3-.2.5-.5.6-1 .4-1-1.1-2-1.8-1.1.6-.7-7.4-11-8.6-12.7-4.8-6.4-9.4-13-14.3-19.3-.1-.2-.6-.3-.6.1-.5 3.7 3.3 7.7 5.3 10.5C15.8 52.7 19 57 22 61.5c.52.84 5.1 8.44 8.23 10.18-2.5 0-4.95.06-7.42.2 0-.17 0-.36-.1-.54-4.8-7.14-10.1-14.74-16-21.14-.1-.2-.3-.2-.5-.2-.3-4.5-.5-9-.8-13.5zm.94 15.6c2.44 3.9 5.14 7.7 7.72 11.5 1.94 2.8 3.8 6 6.38 8.4-1.56.1-3.13.3-4.7.5.02-.2.04-.4-.07-.6-2.5-4.6-5.9-8.5-8-13.3-.2-.5-.6-.5-1-.4l-.4-6.3zm.6 9.9c.86 2.2 2.16 4.3 3.34 6.3 1 1.6 2 3.2 3.3 4.6-1.85.3-3.7.7-5.56 1.2-.14 0-.24.1-.35.1l-.8-12.3zm184.88 120.5c-.07 0-.13-.1-.2-.1-22.4-.3-44.77-2-67.16-2.4-28.73-.6-57.5 3-86.2 4-13.92.4-30.92 4.9-29.1-14.1 1.52-15.9 1.16-32 .7-47.9-.43-15.3-1.2-30.5-2.06-45.7.24.1.54.2.9.1 15.72-3 31.08-1.3 46.9-.7 18.06.6 36.18-1.1 54.28-.5 15.34.5 30.57.8 45.92.6 8.14-.1 26.5-3.2 34.25.8.56.3 1.18.2 1.67-.1-.3 3.8-.6 6.9-.66 8.5-1.33 32 6.44 65.6.76 97.3z"/><path d="M71.97 114.62c7.25-8.33 13.78-17.03 19.2-26.74.68-1.2-.16-2.86-1.6-2.82-11.36.3-22.55 2.2-33.9 2.62-.45.02-.97.25-1.18.68l-.1.06c-.1.1 0 .17-.1.26-.1.12-.1.24-.1.38v.63c.2.4.7.6 1.1.7 10.2.4 20.2-1 30.4-1.5-5.5 9.2-12 17.6-19.2 25.6-1.15 1.3-.3 3.1 1.35 3.2 12.4 1.1 27 8.5 28.36 22.3 2.1 21.1-33.8 24.3-34.3 1.2-.1-2.4-3.6-2.4-3.7 0-.55 21.1 23 25.2 36 12.4 17.5-17.3-5.65-35.5-22.75-39.2zM127 132.3c.13-14.76 1.53-31.32-1.67-45.86-.4-1.77-2.53-1.6-3.42-.45-5.1 6.6-11.3 12.2-15.8 19.3-1 1.5 1.4 2.8 2.4 1.4 4.2-5.5 9.1-10.1 13.8-15.1-.4-4.1-.4-4.5 0-1.4.2 1.8.3 3.6.4 5.5.5 8.1.6 16.3.7 24.4.1 8.6 0 17.2-.2 25.8 0 2.5.9 11-.5 13.1-.8 1.1.7 2.3 1.8 1.7 5.6-3 2.8-23.7 2.8-28.6zM51.68 69.62c-8.9-10.6-16.5-22.6-26.6-32.12-.82-.78-1.98.4-1.23 1.23C33.17 49.18 40.5 61.1 49.6 71.7c1.25 1.44 3.3-.64 2.08-2.08zm139.64-1.84c-9.24-12.13-19.7-23.67-30-34.93-.35-.4-.87.1-.68.53 2.64 5.75 7.28 10.62 11.3 15.42 5.67 6.78 11.45 13.46 16.8 20.5 1.15 1.5 3.75.02 2.58-1.52zm.98-8.93c-.94-1.85-2.92-3.2-4.33-4.68-2.57-2.72-4.92-5.67-7.28-8.57-3.3-4.03-7.4-11-12.5-13-.5-.2-1 .45-.7.86 3.5 5.2 8.2 10 12.1 15.02 2.6 3.37 7 11.4 11.7 11.84.8.07 1.1-.87.8-1.47z"/></svg>