<svg xmlns="http://www.w3.org/2000/svg" width="200" height="200" viewBox="0 0 200 200"><path d="M192.54 46.15c-.9-2.95-3.85-5.52-6.1-7.53-5.42-4.86-11.5-9.27-15.8-15.23-1.37-2-3.5-2.2-5.15-1.5-14.3-5.8-36.2 20.8-44.1 28.7-18.1 17.8-34.2 38.2-52.8 55.4-.9-1-1.8-1.8-2.6-2.6-2.1-2.2-4.1-4.4-6.2-6.5-3.6-3.6-7.7-8.3-12.7-9.9-1.2-.4-2.2-.1-2.9.6-.1-.4-.2-.9-.4-1.3-.6-1.2-1.4-1.6-2.6-2-1.4-.5-3.3 0-4.3 1.1-9.4 9.8-22.3 16.1-30.2 27.3-.3.3-.5.7-.6 1.1-.6-.3-1-.4-1.3-.3l-.7.5c-1.2.8-2 2.2-1.5 3.7 3.8 12.8 17 24.1 25.9 33.4 8.9 9.2 20 22.7 32.42 27.2 1.7.6 3.1.1 4.02-.8 1.2.5 2.8.4 4.1-.7 45.3-36.5 88.7-78.3 125.9-123 2.5-3 .32-7-2.5-7.7zM64.8 170.8c-.35-.26-.73-.48-1.2-.65-5.4-1.94-10.27-7.43-14.43-11.17-6.8-6.1-13.23-12.62-19.53-19.24-1.63-1.72-12.07-15.08-18.9-21.93.54-.1 1.06-.3 1.52-.7.38-.3.78-.6 1.17-1 7.1 9.4 15.85 17.6 24.43 25.7 9.2 8.6 19.3 19.5 30.2 25.9l-3.27 3.2zm6.52-6.35c-6.9-9.37-18.05-16.62-26.73-24.3-9.7-8.58-19.1-17.36-28.2-26.6 2.4-1.94 4.9-3.8 7.4-5.67 9.5 10.58 18.3 21.8 27.4 32.7 4 4.75 15.1 22 23 19.87 1.5-.42 1.6-2.4.4-3.23-8.8-5.97-16.2-15.82-23.4-23.55-8.5-9.07-16.4-18.8-25.3-27.4l4.1-3.1c7.6 9.23 16.4 17.7 24.8 26.25 7.3 7.5 14.5 17.06 23.3 22.9 2 1.35 4.7-1.32 3.3-3.34-5.8-8.74-15.4-15.94-22.9-23.3-7.6-7.4-15.1-15.14-23.1-22.14.1-.12.2-.38 0-.52l-2.3-1.4-.6-.48c2.6-2.04 5.1-4.2 7.5-6.43 5.8 10.7 14 20.3 21.9 29.3 7.1 8.2 15.7 18.9 25.4 24.9-5.5 5.2-10.9 10.4-16.3 15.6zm20.47-19.6c-7.5-7.65-16.4-14.22-23.9-21.8-9.4-9.44-17.9-19.63-25.2-30.68.1-.17.3-.32.5-.5.1-.16.2-.36.4-.55.1.38.3.74.6 1.06 3.2 3.87 6.9 7.47 10.3 11.22 1.8 2 3.7 3.97 5.5 5.96 1.5 1.64 3 3.87 5.2 4.5 1.6.46 3.1-.1 4-1.15h.2c3.8 4.1 7.8 8 11.8 11.9 5.1 5.1 10 10.8 15.5 15.3l-5.1 4.9zm8.8-8.35c-4.1-4.98-9.6-9.1-14.5-13.37-4.6-4.08-9.2-8.27-13.8-12.33 2.9-2.04 5.7-4.26 8.4-6.57 5.2 4.9 10.3 10 15.4 15.05 3 2.94 7.1 8.33 11.4 10.48l-7.2 6.74zm10.6-10.04c-1.1-1.12-2.4-1.87-3.8-2.95-2.9-2.2-5.6-4.7-8.3-7.2-5.2-4.8-10.3-9.8-15.7-14.4 2.4-2.2 4.9-4.5 7.2-6.9 3.4 5.7 8.5 10.3 13.3 14.8 2.4 2.4 8.6 9.7 13.3 10.9l-6.2 5.9zm9.4-8.97c-.8-1.7-2.8-2.6-4.3-3.6-3.2-2.3-6.2-4.8-9.2-7.3-5.1-4.3-10.1-8.7-14.9-13.1l4.8-5.1c6.3 4.1 11.8 9.4 17.1 14.8 3.2 3.3 6.6 7.3 10.5 10.3l-4.1 3.9zm7.9-7.6c-4.3-3.7-9-7.1-13.1-10.9-5.2-4.7-10.3-9.3-16.2-12.9 2.3-2.6 4.7-5.3 7.1-7.9.1.2.2.4.4.5 5.1 4.2 10.3 8.3 15.3 12.7 4.3 3.8 8.5 8.4 13.5 11.4l-7.2 6.9zm10.1-9.9c-3.8-4.5-8.9-8-13.5-11.6-5.4-4.3-10.8-8.5-16.6-12.1-.2-.1-.3-.2-.5-.2 1.8-2.1 3.6-4.2 5.5-6.2-.3.5-.3 1.1.2 1.6 5.4 4.9 10.9 9.6 16 14.8 3.6 3.5 7.1 7.8 11.1 11.2l-2.5 2.4zm5.8-5.8c-4.1-4.3-9.1-8.2-13.4-12.1-4.9-4.6-9.9-9.2-15.5-12.8-.5-.4-1-.3-1.4 0 2.3-2.6 4.6-5.1 6.9-7.7 3.2 5.9 8.2 11.1 13 15.5 3.8 3.5 10.6 10.6 16.5 10.9l-6.17 6.1zm8.9-8.9c-.1-.2-.1-.3-.2-.4-1.5-2-4-2.8-6.1-4-3.4-2-6.5-4.5-9.5-7-5.3-4.4-10.1-9.4-13.7-15.2 1.2-1.3 2.4-2.6 3.7-3.8 5.2 5.5 10.5 10.8 15.8 16.1 3.8 3.8 7.6 8.7 12 12.2l-2.1 2.1zm5.4-5.5c-3.6-4.3-8.8-7.9-12.8-11.4-5.7-5-11.3-10-16.8-15 2-2 4-3.9 6.1-5.7 7.1 5.8 13.1 12.9 19.5 19.5 2.3 2.3 5.1 5.8 8.4 7.9-1.5 1.5-3 3.1-4.5 4.6zm8-8.4c-4.5-2.8-8.6-7.6-12.2-10.9-5.4-5.2-10.7-10.7-16.9-15 2.5-2.2 5.2-4.3 7.9-6.2 4.6 5.4 9.4 10.8 14.3 15.9 3.04 3.2 7.23 8.6 11.73 10.8l-5.1 5.4zM163.2 52c-5.1-4.8-10-9.8-15.2-14.4 1.8-1.26 3.65-2.4 5.5-3.5.16.24 3.9 4.5 4.15 4.7 2.9 2.83 5.65 5.78 8.45 8.7 2.9 3.07 5.87 6.1 8.86 9.08.9.87 1.8 1.94 2.8 2.84-.8.93-1.62 1.9-2.5 2.82-3.1-3.9-8.5-7-12.02-10.3zm18.44 3.1c-1.5-1.45-3.4-2.7-4.66-3.8-3.85-3.5-7.6-7.05-11.5-10.5-1.44-1.3-6.3-6.8-9.93-7.95 2.8-1.58 5.7-3 8.74-4.26 2.9 4.7 7.1 8.5 11.2 12.1 2.3 2 4.6 4 6.8 6.1.7.7 1.4 1.4 2 2.2.5.7 1.5 2.5 1.2 1 0 .1.1.3.2.4-1.3 1.5-2.7 3-4.1 4.6z"/></svg>