<svg xmlns="http://www.w3.org/2000/svg" width="200" height="200" viewBox="0 0 200 200"><path d="M184.8 76.98c-.84-1.25-2.64-1.8-4.07-1.42-2.54-9.25-15.6-19.5-20.7-24.46-14.26-13.9-30-26.9-46.9-37.5C74.07-10.83 41.56 48.28 13 66.08c-2.4 1.5-1.77 4.12 0 5.24l.14 1.84c0 .15 0 .3.03.45 2.86 37-7.74 77.2 1.94 113 .8 2.9 4.5 3.4 6.4 1.8.3.1.4.3.7.3 25.2 5.5 51.1 5.8 76.8 5.6 25.9-.1 53.1 1.6 78.7-.8 2.1-.2 3.4-1.9 3.7-3.7.3.4.6.7 1 1 .8.7 2.2.5 2.5-.6 2-7.9-.7-16.6-1-24.8-.3-10.9.8-21.9 1.8-32.7 1.4-15.3 8.4-41.8-.7-55.6zm-12.92 1.3c-.76.2-1.52.45-2.28.76-1.1-.83-2.17-1.65-3.13-2.5-3.35-2.98-6.55-6.1-9.9-9.1-.9-.78-1.93-.6-2.6 0-.4-3.5-.83-7-1.33-10.48 6.65 6.87 13 14.05 19.24 21.33zm-7 3.37c-3.16 2.13-6.1 4.8-8.4 6.94-.02-5.3-1.22-10.9-1.84-15.8-.1-.7-.17-1.4-.26-2.1 2.82 3.1 5.76 6.1 8.76 9.1.56.5 1.14 1.1 1.73 1.8zM147 72.85c.4 7.16-.12 15.4 2.1 22.2.05.14.14.25.2.38-11.1 11.1-21.12 23.42-33.15 33.53-1.68-.22-3 1.1-3.26 2.65-.4.3-.7.6-1.1.9-17.3 13.2-38.2-7.9-51.1-18.9-2.4-2-4.8-4.2-7.1-6.3-.3-15.2-7.9-56.6 9.1-58.7 28.2-3.4 55 .1 82.9 3.1.2 7.2.8 14.3 1.2 21.4zM108.7 21.2c10.03 5.96 19.2 12.84 27.78 20.35-4.58-.82-9.22-1.4-13.87-1.9-11.8-7.65-24.3-13.7-35.9-21.78 7.2-1.8 14.5-1.15 22 3.33zm-26.2-2c7.78 7.1 16.5 13.6 25.57 19.32-4.04-.2-8.1-.32-12.1-.36-3.14-2.22-7.14-3.94-10.07-5.97-4-2.8-7.78-5.9-11.6-8.9 2.7-1.7 5.43-3.1 8.2-4.2zm-10.8 5.85c4.33 3.87 8.72 7.66 13.22 11.33.63.5 1.3 1.06 1.95 1.63-2.76 0-5.8-.1-8.95-.1-1.63-.8-3.6-1.3-4.82-1.9-3.05-1.5-6.04-3.2-8.66-5.4 2.4-2 4.82-3.8 7.25-5.5zM62 32.62c2.28 2.16 4.87 3.96 7.56 5.57-6.26.4-12.12 1.6-15.87 4.1-7.3 4.9-9.7 14.8-9.8 25.8-.8-.5-1.5-1-2.2-1.6-2.3-1.8-4.4-3.9-6.2-6.1-1.4-1.8-4.1.5-3 2.3 1.8 2.9 4.3 5.4 6.9 7.6 1.1 1 2.7 2.6 4.4 3.1.1 2.9.3 5.8.7 8.6-3.8-1.2-7.8-4.5-10.5-6.7-3.4-2.7-6.6-5.6-9.8-8.6 12.3-8.5 24.7-23 37.6-34.3zM19.67 72.77c-.2-.88-.36-1.76-.55-2.63 1-.54 2-1.13 3-1.77C26.28 72.6 30.48 76.8 35 80.6c2.72 2.32 6.33 5.46 10.1 5.56.72 5.47 1.6 10.72 2.35 15.26-9.64-9.17-18.8-18.8-27.77-28.66zm2.37 103.58c-1.4-29.8 3.1-60.58-.24-90.15 8.93 11.1 19.77 21.18 29.88 30.6 6.6 6.16 14.32 13.27 22.7 19-9.27 2.28-18.3 11.26-25.38 17.1-9.14 7.55-18.14 15.45-26.95 23.44zm82.85 8.87c-26.9.5-53.6-.37-80.4-2.78C32.2 177 39.4 170.77 46.8 165c10.22-8.02 21.27-14.86 31.55-22.6 1.1-.84 1.6-1.94 1.67-3.02 5.93 3.4 12.14 5.95 18.5 6.83 7.4 1 14.5-2.7 20.83-7.7 9.32 6.7 18.38 13.9 27.3 21.1 5.85 4.8 24.37 16.5 25 24.6.04.4.12.7.22 1-21.74-3-45.36-.2-66.98.2zm71.2-47.83c-.9 9.1-3.2 24.6-1.3 37.2-10.3-13-36.9-31.9-50.3-40.7 3.6-3.4 6.8-6.9 9.6-9.7 9.7-9.8 23.5-31 38.2-36.5l.3.1c1 .3 2-.2 2.6-1.1.7-.2 1.5-.4 2.2-.4.23-.1.46-.1.7-.2.2 4.8.8 9.6.7 14.4-.24 12.22-1.87 24.43-2.97 36.6z"/><path d="M125.2 82.34c-11.26-3.9-28.22-.45-40.03-.26-1.98.03-27.1-1.13-24.15 4.42 3 5.66 24.38 2.8 29.7 2.9 10.26.15 24.67 3.04 34.48-.36 3.3-1.15 3.3-5.56 0-6.7zM95.44 65.3C92.9 62.1 87.2 63.05 83.6 63c-6.5-.04-13.34-.36-19.8.4-3.33.4-3.32 4.8 0 5.2 5.57.66 11.3.37 16.88.74 4.43.3 9.07 1.6 13.45.93 2.45-.38 2.52-3.44 1.3-4.96z"/></svg>