<svg xmlns="http://www.w3.org/2000/svg" width="200" height="200" viewBox="0 0 200 200"><path d="M192.1 71.1c-18.27-1.5-49.47 6.52-61.8-10.4-12.1-16.6-11.65-38.8-25.75-54.74-1.43-1.62-4.77-1.35-5.7.73-3.76 8.5-6.9 17.4-10.2 26.2-.34.3-.53.7-.43 1.1-4.55 12.1-9.46 24-16.9 34.7-.06.1-.08.2-.13.3-9.1.7-18.1 2.3-27.3 2.5-11.6.4-23.2.4-34.5 3.4-1.7.4-2.3 2-2.2 3.5-2.5-.1-4.2 3.3-1.6 4.9 18.4 11 34.9 24.3 51.8 37-11.2 22-19 45.3-21.2 70-.2 2.7 2.8 4.5 5.2 3.9 22.5-6 42.6-18.3 61-32.4-.3 1.5.1 3.1 1.8 3.8 18 7.6 35.7 20.6 55.2 23.9 2.4.4 5.6-1.1 5.3-4.1-2-20.3-6-42-13.2-61.1-.7-1.7-1.9-2.5-3.2-2.6.1-.1.1 0 .2-.1 10-4.2 18.6-12.3 26.25-19.8 2.2-2.1 5-4.8 7.8-7.7 1.2 0 2.1-1.1 2.06-2.2 3.75-4.3 7-9 7.64-13.5 4.7 0 4.53-7.3-.2-7.6zm-11.93 12.63c-.68.88-1.44 1.7-2.15 2.57-1.5-.97-3-1.93-4.37-3.02-1.66-1.34-3.26-2.75-4.86-4.17 5.1-.1 10.1-.4 14.9-.5-1.3 1.7-2.4 3.6-3.6 5.2zm-77.3-67.9c2.96 4.78 5.1 10.36 7 16.15-3.48-2.35-7-4.65-10.45-7.02 1.14-3.07 2.27-6.12 3.45-9.12zm-4.7 12.5c4.33 3.42 8.8 7 13.6 9.7.9 2.86 1.77 5.74 2.7 8.56-2.6-1.7-5.56-3-7.9-4.4-3.74-2.2-7.38-4.5-11.14-6.6.93-2.5 1.83-4.9 2.73-7.4zm-3.7 9.84c3.02 1.8 6 3.67 8.95 5.6 3.98 2.6 8.38 7.18 13.1 8.5 2.4 6.26 5.38 12 9.77 16.36-11.4-8.5-23.1-16.25-35.2-22.4 1.1-2.66 2.2-5.35 3.3-8.06zm-18.4 36.27c23.83 16.4 45.9 34.52 68.24 52.88.6 3.55 1.4 7.07 2.1 10.57-9.6-11.5-24.6-20.7-36.3-29.8-13.5-10.5-27.2-21-41.2-30.7 2.6-.7 5-1.7 7.2-3zM45.1 184.6c.45-3.53 1.06-7.02 1.74-10.5 1.24 2 2.6 3.92 4.06 5.78.48.62 1.04 1.33 1.67 2.04-2.46.97-4.95 1.87-7.48 2.68zm12.44-4.8c-1.18-1.03-2.4-2.04-3.38-3.18-2.28-2.68-4.2-5.67-6.02-8.68.4-1.7.83-3.36 1.28-5.03l7.76 6.9c2.3 2 5.42 5.3 8.63 6.2-2.7 1.4-5.4 2.8-8.2 4zm11.18-5.45c-.02-.2-.05-.43-.18-.63-2.13-3.1-6.87-5.04-9.85-7.36-2.9-2.18-5.5-4.57-8.4-6.72 1.1-3.77 2.3-7.5 3.6-11.2 3.4 2.63 6.7 5.37 9.9 8.24 3.7 3.3 7.5 7.55 11.9 9.74.8.4 1.5.18 1.9-.3.6.7 1.3 1.32 2.1 1.6-3.7 2.3-7.4 4.57-11.3 6.63zm13.67-8.18c-.1-.2-.3-.4-.5-.5-.5-.24-.8-.35-1.4-.34-.6 0-1.2-.72-1.6-1.1-.4-.33-.8-.36-1.1-.22l-.1-.1c-3.3-4.2-8.4-7.6-12.5-11-3.3-2.7-6.7-5.2-10.2-7.6 1-2.6 2.1-5.2 3.2-7.8 5.6 5.3 11.3 10.6 16.9 16 3.2 3.1 6.5 6.2 9.7 9.3l1 1.1c-1.2.8-2.4 1.7-3.6 2.5zm8.2-5.63c-3.7-3.92-9.2-7.53-12.2-10.27-6.1-5.47-12.4-10.85-18.8-16.05 1.2-2.8 2.5-5.6 3.8-8.36 10.9 10.2 21.7 20.7 33.4 29.98-2.1 1.6-4.2 3.17-6.4 4.7zm16.4-1.84c-.4-.15-.8-.15-1.1-.15 1.1-2.47-1.6-5.3-4.5-5.18-12.7-9.66-24.2-20.72-36.3-31.03l.6-1.2c1-2.04.4-4.05-1.4-5.36-16.9-12.32-33.3-25.35-52-34.84 4.2-.5 8.5-.82 12.8-1.07 40.4 30.58 77.3 66 118.2 95.96-12.3-5.28-24.2-12.6-36.4-17.13zm48 18.56c-42.2-32.43-82-68.2-126.5-97.58 4.4-.2 8.9-.3 13.3-.38 15.8 14.74 33.6 27.58 50.4 41.03 20 16 39 32.94 58.3 49.77 1.1.93 2.3.85 3.2.3l1.2 6.86zm-2.5-12.8c-31-31.23-68.3-61.13-105.5-85.26h1c4.7-.08 10-.07 15.1-.74 15.9 11.87 31.4 24.2 46.8 36.85 11 9.1 22.2 21.5 34.9 28.1 1 .6 1.9.4 2.6-.2 1.6 7.1 3.4 14.2 5 21.3zm-6.8-47.24c-1.8 1.36-.5 4.23 1.3 4.68-.2.04-.5.16-.7.24-20-19.63-44.8-35.5-68.8-49.9.1-.85-.1-1.75-.6-2.4 2.3-2.73 4.3-5.67 6.2-8.7 24.3 15.14 44.4 36.14 68.7 51.03-2.1 1.72-4.1 3.4-6.3 5.05zm10.5-8.75C132.8 91.85 110.7 71.6 85 58.52c1.85-3.17 3.5-6.47 5.05-9.84 24.77 16.92 45.3 40.05 70.6 55.82-1.4 1.33-2.84 2.67-4.3 3.97zM169 96.33c-1.46 1.53-2.96 3-4.46 4.47-10.08-9.2-20.93-18.7-32.3-27.6 3.76 2.2 7.9 3.6 12.27 4.53l.1.15c.1.25.3.5.6.7.1.2.4.44.7.72.9.9 1.9 1.67 2.9 2.44 2.8 2.22 5.6 4.47 8.3 6.7 2.2 1.73 9.3 9.37 12.4 7.12.9-.57 1.4-1.74.7-2.67-1.1-1.7-2.6-2.3-4.3-3.5-2.9-1.9-5.7-3.9-8.6-5.9-2.4-1.7-4.8-3.4-7.2-5 4.7.5 9.5.6 14.3.6 2.2 2.3 4.4 4.6 6.8 6.8 1.3 1.2 2.7 2.5 4.17 3.8-1.9 2.2-3.9 4.3-5.93 6.4z"/></svg>