<svg xmlns="http://www.w3.org/2000/svg" width="200" height="200" viewBox="0 0 200 200"><path d="M168.94 104.4c-8.26-9.4-18.9-17.13-27.66-26.22-10.8-11.2-20.9-23.14-31-35-1.7-2-4.5-1.38-6.3 0-16.06 12.44-32.1 24.95-47.14 38.63-6.57 6-26.1 20.9-23.5 31.5l.1.2c-2.32 8.1 1.6 17.7 3.2 25.7 1.05 5.3 2.12 10.5 3.16 15.8-1-.6-2.63.5-1.78 1.6.9 1.2 1.83 2.3 2.77 3.4 1.6 8.5 3.1 17 4.3 25.6.3 2.4 1.7 4.3 4.3 4.4 6.2.1 14.6 1.5 22.5 1.7.8.6 1.6.5 2.2 0 5.2 0 10.1-.8 13.9-3 1.6-1 1.9-3 1.2-4.4 3.5-18.56 2.9-37.54 2.8-56.36l18.6.04c2.1 17.2 1.1 34.6 2.4 51.9.1 1.7 1 2.87 2.1 3.5.2 1.4 1.1 2.7 2.6 3.2 11.6 4 24.7.8 36.5-.7 2-.26 3.7-1.2 4.3-3.3 6-22.65 9.4-49.15 10.1-72.6 1-1.45 1.2-3.74 0-5.17zM52.06 98.3c5.23 6.2 10.72 12.12 16.43 17.88 4.6 4.64 9.5 10.25 15.2 13.67l.1 6.95c-12.2-10.98-26.5-19.4-37.5-31.74 2-2.27 3.9-4.62 5.7-6.75zm1.06 82.76c-.45-3.17-.96-6.34-1.5-9.5l1.4 1.43c2.48 2.5 4.96 5.1 7.48 7.8-2.52.1-5 .2-7.38.2zm13.9-.45c-3.2-2.9-6.53-5.6-9.6-8.5-2.34-2.2-4.64-4.4-6.93-6.7-1-5.3-2.1-10.6-3.3-15.8 2.7 3.5 5.5 6.8 8.4 10.2 5.9 6.8 12.3 14.8 19.4 21-2.7-.1-5.4 0-8.1 0zm16.6.1c-12.12-12.6-25.95-23.9-37.7-37-.15-.6-.28-1.3-.44-2-1.2-5-2.1-11.4-3.78-17.2 5.6 6.7 11.54 13.1 17.38 19.5 6.9 7.7 14.42 18.8 23.32 24.1.52.3 1.07.4 1.56.2-.06 4.2-.15 8.3-.35 12.5zm-19.78-37c-8.6-8.4-16.75-17.2-24.84-26.1-.73-1.4-1.53-2.7-2.5-3.9 2.66-1.2 5.25-3.5 7.75-6.2 10.46 14.2 26.52 23.2 39.02 35.4.2.2.4.3.62.4 0 6.7.1 13.4.1 20.2-5.2-7.3-14-13.5-20.2-19.6zm19.8-20.3v.6c-4.05-3.5-8.64-6.6-12.6-10.2-6.07-5.4-11.66-11.4-17.18-17.4.74-.8 1.47-1.5 2.17-2.2.58-.5 1.18-1 1.75-1.6 5.67 6.8 12.08 13 18.6 18.9 2.68 2.5 5.75 5.8 9.05 8.7-1.05.8-1.8 2-1.78 3.4zm7.78-4.2l-2.64-1.8c-4.08-2.9-7.78-6.4-11.48-9.8-6-5.4-11.76-11.1-17.26-17.1 2.17-1.9 4.38-3.9 6.6-5.8 5.53 7.4 11.93 14.2 18.48 20.7 4.02 4 9.3 10 14.9 13.9l-8.6.1zm17.18 0h-.05c-5.7-6.2-14.36-10.7-20.8-16.3-6.95-6.2-13.43-12.7-19.6-19.5 1.56-1.3 3.17-2.6 4.74-3.9 10.6 14.4 23.6 27.5 37.3 39.8h-1.6zm42.4 57.6c-.46 2.2-7 2.9-14.1 2.9l-.92-.6c-1.95-1.4-3.7-3.1-5.43-4.8-.82-.8-6.77-6.7-6.4-7.4.4-.8-.67-1.8-1.32-1-2.04 2.4 2.03 6.8 3.35 8.5 1.5 1.9 3.2 3.7 4.97 5.3-3.62-.1-7-.3-9.4-.5-.54-9.8-.62-19.7-.96-29.5 3.1 3.6 6.7 6.96 10.2 10.17 3.3 2.9 6.5 5.83 9.7 8.9 2.8 2.76 4.9 6.1 8.4 8.05.6.37 1.3.2 1.8-.2l-.1.35zm3.02-17.7c-.46-.3-.9-.6-1.34-.8-3.94-2.6-7.88-5.3-11.8-8-4.27-2.9-8.54-5.9-12.62-9.1-1.48-1.1-4.6-3-5.46-4.7-.52-1-2.24-.3-1.83.8 2.3 6 9.1 10.1 14.05 13.9 4 3.1 8.1 6.1 12.2 9.1 1.68 1.2 3.8 3.4 6 4.5-.52 3.4-1.1 6.7-1.78 10.1-2.34-6.9-10.46-11.9-15.86-16.3-5.3-4.3-10.35-8.65-14.98-13.55-.26-5.9-.64-11.7-1.33-17.54 11.65 10.07 23.6 19.7 34.97 29.14l.17.1-.3 2.62zm1.63-12.2l-.45 3.5c-25.45-25.7-55.6-45.8-80.25-72.6 2-1.6 4.06-3.2 6.08-4.9 20.37 26.3 51.32 43.5 75.5 66-.3 2.8-.55 5.5-.88 8.1zm1.5-13.7c-9.7-10.9-21.86-19.5-33.55-28.1-7.7-5.7-15.4-11.3-22.83-17.4-3.8-3.1-7.34-6.5-10.86-9.9-1.3-1.3-9.8-6.7-3.5-5.7.5.1.6-.5.2-.7L84.2 70c3.76-3.04 7.48-6.14 11.28-9.1 7.2-5.66 8.68-11.17 14.56-4.22 6.87 8.12 13.87 16.13 21.03 24 9.4 10.4 20.3 23.9 33.5 29.55-1.98 2.6-3.4 5.58-4.5 8.78-9.16-9.2-20.55-17.4-29.85-25.9-7-6.4-13.94-12.9-20.9-19.3-3.8-3.5-7.5-8.4-12.5-10.1-.3-.1-.66.3-.55.6 3.7 11 19.75 21.8 27.8 29.7 10.4 10.2 21.57 23.9 34.05 32.5-.43 2.2-.77 4.4-1.05 6.6z"/><path d="M171.25 76.6c.4-.58.7-1.27.73-2.15.08-1.85.24-3.74.43-5.65 1.4-.17 2.5-1.8 1.2-3.06l-.7-.7c2-16.78 6.1-35.13-2.5-50.04-6.9-11.96-25.4-6.55-36-5.1-1.7.25-3 2.28-2.9 3.88.4 8.56.4 17.08.1 25.62-8.5-8.1-16.9-16.24-25.3-24.5-2-1.98-4.6-1.6-6.6 0C65.5 41.64 33 72.45 8.3 108.27c-2.2 3.14 2.73 6.9 5.25 4.07 27.83-31.37 56.3-61.6 89.07-87.84 13.68 13.45 27.67 26.58 41.44 39.92 9.1 8.82 18.1 17.68 27 26.7 3.3 3.37 11.65 10.66 12.96 13.3 1.57 3.15 5.73 1.84 6.76-.87 2.48-6.42-9.2-18.02-19.32-26.94zM165 24.1c.63 1.85 1.04 3.74 1.37 5.64-1.5-1.1-3-2.14-4.37-3.24-4.23-3.4-8.36-6.95-12.36-10.62 6.75-.37 12.96.98 15.37 8.22zm-1.18 46.15c-2.35-2-4.24-3.6-5.3-4.62-7.18-7.03-14.45-14-21.73-20.95.3-1.9.5-3.8.8-5.7 9.5 7.47 17.9 16.07 26.9 24.02-.3 2.44-.6 4.86-.8 7.26zM165.24 58c-8.58-7.75-17.85-15.18-27.35-21.36.2-2.28.3-4.57.5-6.86 4 5.16 8.9 9.82 13.4 14.36 3.8 3.8 8.4 9.5 13.6 11.97l-.3 1.9zm-25.2-39.44c1.8 5.7 7.6 10.14 11.75 14.12 3.4 3.3 7 6.52 10.5 9.7 1.2 1.1 2.7 2.73 4.3 4l-.6 5.13c-9.5-8.2-20-16.1-27.4-26.2l.4-8c2.6-.4 5.5-.9 8.3-1.2-.4.5-.4 1.1.1 1.7 3.7 4 7.7 7.7 11.7 11.4 2.3 2.2 4.8 4.9 7.6 6.8.1 1.5.1 2.9 0 4.4l-.5-.3c-3.3-2.6-6.6-5.4-9.8-8.2-4.5-3.8-11.8-8.7-14.66-14.1-.65-1.2-2.6-.3-2.2.9z"/></svg>